<svg xmlns="http://www.w3.org/2000/svg" width="19.5" height="18" viewBox="0 0 21.5 20">
  <path id="chart" d="M20,13.75a.75.75,0,0,0-.75-.75h-3a.75.75,0,0,0-.75.75V20.5H14V4.25A13.189,13.189,0,0,0,13.952,2.7c-.044-.325-.114-.427-.172-.484s-.159-.128-.484-.171A13.179,13.179,0,0,0,11.75,2a13.179,13.179,0,0,0-1.546.048c-.325.044-.427.114-.484.171s-.128.159-.171.484A13.178,13.178,0,0,0,9.5,4.25V20.5H8V8.75A.75.75,0,0,0,7.25,8h-3a.75.75,0,0,0-.75.75V20.5H1.75a.75.75,0,0,0,0,1.5h20a.75.75,0,0,0,0-1.5H20Z" transform="translate(-1 -2)" fill="#fafafa"/>
</svg>
