<svg xmlns="http://www.w3.org/2000/svg" width="18" height="18" viewBox="0 0 20 20">
  <g id="home" transform="translate(-2 -2)">
    <path data-name="Path 517" d="M16.525,2h.068c.884,0,1.6,0,2.17.055a3.552,3.552,0,0,1,1.571.46,3.489,3.489,0,0,1,1.152,1.152,3.553,3.553,0,0,1,.459,1.571C22,5.81,22,6.523,22,7.407v.068c0,.581,0,1.065-.037,1.459a2.6,2.6,0,0,1-.34,1.147,2.559,2.559,0,0,1-.844.845,2.6,2.6,0,0,1-1.147.34c-.394.037-.878.037-1.459.037h-1.1a17.028,17.028,0,0,1-2.086-.074,2.534,2.534,0,0,1-1.535-.675,2.534,2.534,0,0,1-.675-1.535A17.028,17.028,0,0,1,12.7,6.932v-1.1c0-.581,0-1.065.037-1.459a2.6,2.6,0,0,1,.34-1.147,2.559,2.559,0,0,1,.845-.845,2.6,2.6,0,0,1,1.147-.34C15.46,2,15.944,2,16.525,2Zm.824,5.814c-.479,0-.719,0-.888-.12a.652.652,0,0,1-.154-.154c-.12-.169-.12-.409-.12-.888s0-.719.12-.888a.652.652,0,0,1,.154-.154c.169-.12.409-.12.888-.12s.719,0,.889.12a.652.652,0,0,1,.154.154c.12.169.12.409.12.888s0,.719-.12.888a.652.652,0,0,1-.154.154C18.068,7.814,17.828,7.814,17.349,7.814Z" fill="#0f172a" fill-rule="evenodd"/>
    <path data-name="Path 518" d="M10.081,2.377a2.6,2.6,0,0,0-1.147-.34C8.54,2,8.056,2,7.475,2H7.407c-.884,0-1.6,0-2.17.055a3.552,3.552,0,0,0-1.571.46A3.488,3.488,0,0,0,2.514,3.666a3.552,3.552,0,0,0-.46,1.571C2,5.81,2,6.523,2,7.407v.068c0,.581,0,1.065.037,1.459a2.6,2.6,0,0,0,.34,1.147,2.559,2.559,0,0,0,.845.845,2.6,2.6,0,0,0,1.147.34c.394.037.878.037,1.459.037h1.1a17.029,17.029,0,0,0,2.086-.074,2.534,2.534,0,0,0,1.535-.675,2.534,2.534,0,0,0,.675-1.535A17.028,17.028,0,0,0,11.3,6.932v-1.1c0-.581,0-1.065-.037-1.459a2.6,2.6,0,0,0-.34-1.147A2.559,2.559,0,0,0,10.081,2.377ZM5.763,7.694c.169.12.409.12.888.12s.719,0,.888-.12a.651.651,0,0,0,.154-.154c.12-.169.12-.409.12-.888s0-.719-.12-.888a.651.651,0,0,0-.154-.154c-.169-.12-.409-.12-.888-.12s-.719,0-.888.12a.651.651,0,0,0-.154.154c-.12.169-.12.409-.12.888s0,.719.12.888A.651.651,0,0,0,5.763,7.694Z" fill="#0f172a" fill-rule="evenodd"/>
    <path data-name="Path 519" d="M9.018,12.772a2.534,2.534,0,0,1,1.535.675,2.534,2.534,0,0,1,.675,1.535,17.028,17.028,0,0,1,.074,2.086v1.1c0,.581,0,1.065-.037,1.459a2.6,2.6,0,0,1-.34,1.147,2.559,2.559,0,0,1-.845.844,2.6,2.6,0,0,1-1.147.34C8.54,22,8.056,22,7.475,22H7.407c-.884,0-1.6,0-2.17-.055a3.553,3.553,0,0,1-1.571-.459,3.489,3.489,0,0,1-1.152-1.152,3.552,3.552,0,0,1-.46-1.571C2,18.19,2,17.477,2,16.593v-.068c0-.581,0-1.065.037-1.459a2.6,2.6,0,0,1,.34-1.147,2.559,2.559,0,0,1,.845-.845,2.6,2.6,0,0,1,1.147-.34c.394-.037.878-.037,1.459-.037h1.1A17.028,17.028,0,0,1,9.018,12.772Zm-2.367,5.74c-.479,0-.719,0-.888-.12a.652.652,0,0,1-.154-.154c-.12-.169-.12-.409-.12-.889s0-.719.12-.888a.652.652,0,0,1,.154-.154c.169-.12.409-.12.888-.12s.719,0,.888.12a.652.652,0,0,1,.154.154c.12.169.12.409.12.888s0,.719-.12.889a.652.652,0,0,1-.154.154C7.37,18.512,7.131,18.512,6.651,18.512Z" fill="#0f172a" fill-rule="evenodd"/>
    <path data-name="Path 520" d="M12.7,16.615v.036h1.4c0-.668,0-1.116.036-1.458a1.237,1.237,0,0,1,.16-.583,1.161,1.161,0,0,1,.321-.321,1.237,1.237,0,0,1,.583-.16c.342-.035.79-.036,1.458-.036h1.86V12.7h-1.9c-.623,0-1.143,0-1.563.043a2.589,2.589,0,0,0-1.217.388,2.558,2.558,0,0,0-.706.706,2.589,2.589,0,0,0-.388,1.217C12.7,15.473,12.7,15.993,12.7,16.615Z" fill="#0f172a"/>
    <path data-name="Path 521" d="M22,18.535v-.024H20.6c0,.443,0,.74-.016.97a1.281,1.281,0,0,1-.073.4,1.162,1.162,0,0,1-.629.629,1.281,1.281,0,0,1-.4.073c-.23.016-.528.016-.97.016h-1.86V22h1.884c.413,0,.759,0,1.042-.019a2.625,2.625,0,0,0,.844-.175,2.559,2.559,0,0,0,1.385-1.385,2.625,2.625,0,0,0,.175-.844C22,19.294,22,18.949,22,18.535Z" fill="#0f172a"/>
    <path data-name="Path 522" d="M14.093,21.3a.7.7,0,1,1-1.4,0V18.512h1.4Z" fill="#0f172a"/>
    <path data-name="Path 523" d="M21.3,12.7a.7.7,0,0,0-.7.7v3.256H22V13.4A.7.7,0,0,0,21.3,12.7Z" fill="#0f172a"/>
    <path data-name="Path 524" d="M16.076,16.617A2.5,2.5,0,0,0,16,17.5a2.5,2.5,0,0,0,.076.883,1,1,0,0,0,.541.541A2.5,2.5,0,0,0,17.5,19a2.5,2.5,0,0,0,.883-.076,1,1,0,0,0,.541-.541A2.5,2.5,0,0,0,19,17.5a2.5,2.5,0,0,0-.076-.883,1,1,0,0,0-.541-.541A2.5,2.5,0,0,0,17.5,16a2.5,2.5,0,0,0-.883.076A1,1,0,0,0,16.076,16.617Z" fill="#0f172a"/>
  </g>
</svg>
