<svg xmlns="http://www.w3.org/2000/svg" width="19" height="20" viewBox="0 0 19 20">
  <path id="settings" d="M14.279,2.152A5.062,5.062,0,0,0,12.5,2a5.062,5.062,0,0,0-1.779.152A2.008,2.008,0,0,0,9.631,3.235a2.448,2.448,0,0,0-.144.863,1.615,1.615,0,0,1-.8,1.353,1.64,1.64,0,0,1-1.579.008,2.5,2.5,0,0,0-.825-.308,2.026,2.026,0,0,0-1.49.4A4.989,4.989,0,0,0,3.774,7a4.97,4.97,0,0,0-.757,1.6,1.989,1.989,0,0,0,.4,1.479,2.479,2.479,0,0,0,.681.556,1.575,1.575,0,0,1,0,2.722,2.481,2.481,0,0,0-.681.556,1.989,1.989,0,0,0-.4,1.479A4.97,4.97,0,0,0,3.774,17,4.988,4.988,0,0,0,4.8,18.453a2.027,2.027,0,0,0,1.49.4,2.5,2.5,0,0,0,.825-.308,1.64,1.64,0,0,1,1.579.008,1.615,1.615,0,0,1,.8,1.353,2.448,2.448,0,0,0,.144.863,2.008,2.008,0,0,0,1.091,1.082A5.063,5.063,0,0,0,12.5,22a5.063,5.063,0,0,0,1.779-.152,2.008,2.008,0,0,0,1.091-1.082,2.447,2.447,0,0,0,.144-.863,1.615,1.615,0,0,1,.8-1.353,1.64,1.64,0,0,1,1.579-.008,2.5,2.5,0,0,0,.825.308,2.026,2.026,0,0,0,1.49-.4A4.987,4.987,0,0,0,21.226,17a4.971,4.971,0,0,0,.757-1.6,1.99,1.99,0,0,0-.4-1.479,2.48,2.48,0,0,0-.681-.556,1.574,1.574,0,0,1,0-2.722,2.479,2.479,0,0,0,.681-.556,1.989,1.989,0,0,0,.4-1.479A4.972,4.972,0,0,0,21.226,7,4.988,4.988,0,0,0,20.2,5.547a2.026,2.026,0,0,0-1.49-.4,2.5,2.5,0,0,0-.825.308,1.64,1.64,0,0,1-1.579-.008,1.615,1.615,0,0,1-.8-1.353,2.447,2.447,0,0,0-.144-.863A2.007,2.007,0,0,0,14.279,2.152ZM12.5,15a3,3,0,1,0-3.023-3A3.011,3.011,0,0,0,12.5,15Z" transform="translate(-3 -2)" fill="#fafafa" fill-rule="evenodd"/>
</svg>
